<?xml version="1.0" encoding="utf-8"?>
<!-- Generator: Adobe Illustrator 24.2.1, SVG Export Plug-In . SVG Version: 6.00 Build 0)  -->
<svg version="1.2" baseProfile="tiny-ps" xmlns:xlink="http://www.w3.org/1999/xlink" viewBox="0 0 1000 1000" xmlns="http://www.w3.org/2000/svg">
  <title>Life.Simpler.</title>
<path fill="#568BD0" d="M867.6,135.4v731.2H136.4V135.4H867.6 M897,106H107v790h790V106L897,106z" />
<g>
	<g>
		<path d="M296,368.8h19.3v247h152.2v17.4H296V368.8z" />
	</g>
	<g>
		<path fill="#568BD0" d="M543.3,625c-18.5-5.6-33.2-13.1-44-22.4l16.5-37.2c10.5,8.3,23.5,15.2,38.8,20.4    c15.3,5.3,30.7,7.9,46.2,7.9c19.1,0,33.4-3.1,42.8-9.2s14.2-14.2,14.2-24.3c0-7.4-2.6-13.4-7.9-18.2c-5.3-4.8-12-8.5-20-11.2    c-8.1-2.7-19.1-5.8-33.1-9.2c-19.6-4.7-35.5-9.3-47.6-14c-12.1-4.7-22.6-12-31.3-21.9c-8.7-9.9-13.1-23.4-13.1-40.3    c0-14.2,3.9-27.2,11.6-38.8c7.7-11.6,19.4-20.9,34.9-27.8s34.6-10.3,57.2-10.3c15.7,0,31.1,2,46.3,5.9    c15.2,3.9,28.3,9.6,39.4,16.9l-15.1,37.1c-11.3-6.6-23-11.6-35.3-15.1c-12.3-3.4-24.2-5.1-35.7-5.1c-18.9,0-32.9,3.2-42.1,9.6    c-9.2,6.4-13.8,14.8-13.8,25.4c0,7.4,2.6,13.4,7.9,18c5.3,4.7,12,8.3,20,11c8.1,2.7,19.1,5.8,33.1,9.2c19.1,4.4,34.8,9,47.1,13.8    s22.7,12.1,31.5,21.9c8.7,9.8,13.1,23,13.1,39.7c0,14.2-3.9,27.1-11.6,38.6c-7.7,11.5-19.4,20.7-35.1,27.6    c-15.7,6.9-34.8,10.3-57.4,10.3C581,633.4,561.8,630.6,543.3,625z" />
	</g>
</g>
</svg>